<?xml version="1.0" encoding="UTF-8"?>
<!DOCTYPE svg PUBLIC "-//W3C//DTD SVG 1.1//EN" "http://www.w3.org/Graphics/SVG/1.1/DTD/svg11.dtd">
<!-- Creator: CorelDRAW -->
<svg xmlns="http://www.w3.org/2000/svg" xml:space="preserve" width="79.0108mm" height="25.153mm" version="1.1" style="shape-rendering:geometricPrecision; text-rendering:geometricPrecision; image-rendering:optimizeQuality; fill-rule:evenodd; clip-rule:evenodd"
viewBox="0 0 4615.71 1469.41"
 xmlns:xlink="http://www.w3.org/1999/xlink"
 xmlns:xodm="http://www.corel.com/coreldraw/odm/2003">
 <defs>
  <style type="text/css">
   <![CDATA[
    .fil2 {fill:none;fill-rule:nonzero}
    .fil0 {fill:black;fill-rule:nonzero}
    .fil1 {fill:#F8F8F8;fill-rule:nonzero}
   ]]>
  </style>
   <clipPath id="id0" style="clip-rule:nonzero">
    <path d="M1061.22 396.44l1294.33 0 13.16 733.07 -1294.33 0 -13.16 -733.07zm0.71 39.58z"/>
   </clipPath>
   <clipPath id="id1" style="clip-rule:nonzero">
    <path d="M1074.38 731.42l1340.54 0 17.3 737.99 -1340.54 0 -17.3 -737.99zm0 0z"/>
   </clipPath>
   <clipPath id="id2" style="clip-rule:nonzero">
    <path d="M3003.29 169.55l1294.33 0 39.47 996.27 -1294.33 0 -39.47 -996.27zm98.67 164.45z"/>
   </clipPath>
 </defs>
 <g id="Layer_x0020_1">
  <metadata id="CorelCorpID_0Corel-Layer"/>
  <g id="_1998063588416">
   <g>
    <g>
     <path class="fil0" d="M804.39 0l0 281.44 -483.99 0 0 279.5 463.7 0 0 281.44 -463.7 0 0 282.72 483.99 0 0 281.44 -804.39 0 0 -1406.55 804.39 0zm0 0z"/>
    </g>
   </g>
  </g>
  <g id="_1998063587072">
   <g>
    <g>
     <path class="fil0" d="M1077.2 531.96l213.18 475.62 212.85 -475.62 358.08 0 -468.85 874.59 -204.48 0 -468.85 -874.59 358.08 0zm0 0z"/>
    </g>
   </g>
  </g>
  <g id="_1998063586544">
   <g>
    <g>
     <path class="fil0" d="M2681.1 1011.12l-634.04 0c0,61.43 19.8,106.91 59.57,136.54 39.69,29.46 82.84,44.11 129.45,44.11 48.95,0 87.59,-6.52 115.93,-19.64 28.5,-13.04 60.94,-38.97 97.25,-77.6l218.32 109.16c-91.05,152.23 -242.15,228.31 -453.39,228.31 -131.86,0 -244.97,-45.08 -339.4,-135.25 -94.27,-90.32 -141.36,-199.17 -141.36,-326.52 0,-127.28 47.09,-236.36 141.36,-327.17 94.43,-90.96 207.54,-136.53 339.4,-136.53 138.63,0 251.49,40.09 338.44,120.11 86.94,80.1 130.41,194.66 130.41,343.59 0,20.45 -0.64,34.05 -1.93,40.89zm-625.67 -167.12l332.64 0c-6.92,-45.48 -24.8,-80.34 -53.78,-104.65 -28.98,-24.47 -66.25,-36.71 -111.74,-36.71 -50.07,0 -89.84,13.12 -119.47,39.29 -29.46,26 -45.32,60.05 -47.66,102.07zm0 0z"/>
    </g>
   </g>
  </g>
  <g id="_1998063589616">
   <g>
    <g>
     <path class="fil0" d="M2691.39 1406.55l0 -874.59 301.73 0 0 92.1 3.22 0c78.57,-78.33 162.05,-117.53 250.52,-117.53 43.31,0 86.3,5.71 128.81,17.06 42.66,11.43 83.56,28.98 122.69,52.81 39.29,23.83 71.17,57.64 95.64,101.44 24.47,43.79 36.71,94.67 36.71,152.63l0 576.08 -301.73 0 0 -494.29c0,-45.48 -14.49,-85.33 -43.47,-119.47 -28.98,-34.13 -66.82,-51.2 -113.35,-51.2 -45.57,0 -86.78,17.71 -123.65,53.13 -36.95,35.26 -55.39,74.38 -55.39,117.53l0 494.29 -301.73 0zm0 0z"/>
    </g>
   </g>
  </g>
  <g id="_1998063591296">
   <g>
    <g>
     <path class="fil0" d="M3735.99 531.96l0 -325.55 301.72 0 0 325.55 184.19 0 0 230.24 -184.19 0 0 277.9c0,80.75 22.71,121.08 68.27,121.08 11.35,0 23.27,-2.25 35.75,-6.76 12.64,-4.67 22.3,-9.34 28.98,-13.85l10.31 -6.76 75.03 243.76c-64.89,36.23 -138.71,54.42 -221.55,54.42 -56.91,0 -105.86,-9.9 -146.84,-29.62 -40.82,-19.97 -71.73,-46.69 -92.74,-80.18 -21.09,-33.49 -36.23,-68.67 -45.4,-105.62 -9.02,-36.87 -13.52,-76.4 -13.52,-118.5l0 -335.86 -125.91 0 0 -230.24 125.91 0zm0 0z"/>
    </g>
   </g>
  </g>
  <g id="_1998063593120">
   <g>
    <g>
     <path class="fil0" d="M4419.6 1041.71c54.5,0 100.79,19.16 138.79,57.31 38.15,38 57.31,84.29 57.31,138.79 0,53.45 -19.16,99.18 -57.31,137.18 -38,38 -84.29,56.99 -138.79,56.99 -53.45,0 -99.18,-19 -137.18,-56.99 -38,-38 -56.99,-83.73 -56.99,-137.18 0,-54.5 19,-100.79 56.99,-138.79 38,-38.15 83.73,-57.31 137.18,-57.31zm0 0z"/>
    </g>
   </g>
  </g>
  <g>
  </g>
  <g style="clip-path:url(#id0)">
   <g id="_1998063603920">
    <path class="fil1" d="M2363.31 456.02l-190.07 0c-325.47,-70.36 -397.77,-143.05 -468.21,-468.93l0 -182.66 -24.07 0 0 184.59c-70.28,324.27 -142.97,396.72 -467.81,467l-138.63 0 0 24.07 138.63 0c324.83,70.28 397.52,142.73 467.81,467l0 181.21 24.07 0 0 -179.28c70.44,-325.88 142.73,-398.49 468.21,-468.93l190.07 0 0 -24.07zm0 0z"/>
   </g>
  </g>
  <path class="fil2" d="M1061.22 396.44l1294.33 0 13.16 733.07 -1294.33 0 -13.16 -733.07zm0.71 39.58z"/>
  <g>
  </g>
  <g style="clip-path:url(#id1)">
   <g id="_1998063603200">
    <path class="fil1" d="M2421.12 1412.24l-198.52 0c-340.04,-73.58 -415.64,-149.49 -489.22,-489.95l0 -190.87 -25.12 0 0 192.89c-73.41,338.76 -149.41,414.51 -488.65,487.93l-144.9 0 0 25.11 144.9 0c339.24,73.42 415.24,149.09 488.65,487.93l0 189.26 25.12 0 0 -187.25c73.58,-340.53 149.17,-416.37 489.22,-489.95l198.52 0 0 -25.11zm0 0z"/>
   </g>
  </g>
  <path class="fil2" d="M1074.38 731.42l1340.54 0 17.3 737.99 -1340.54 0 -17.3 -737.99zm0 0z"/>
  <g>
  </g>
  <g style="clip-path:url(#id2)">
   <g id="_1998063603008">
    <path class="fil1" d="M4331.69 492.32l-190.07 0c-325.47,-70.44 -397.85,-143.05 -468.21,-468.93l0 -182.66 -24.07 0 0 184.59c-70.28,324.27 -142.97,396.72 -467.81,467l-138.71 0 0 24.07 138.71 0c324.83,70.28 397.53,142.73 467.81,467l0 181.21 24.07 0 0 -179.28c70.36,-325.88 142.73,-398.49 468.21,-468.93l190.07 0 0 -24.07zm0 0z"/>
   </g>
  </g>
  <path class="fil2" d="M3003.29 169.55l1294.33 0 39.47 996.27 -1294.33 0 -39.47 -996.27zm98.67 164.45z"/>
 </g>
</svg>
