<?xml version="1.0" encoding="utf-8"?>
<!-- Generator: Adobe Illustrator 27.5.0, SVG Export Plug-In . SVG Version: 6.00 Build 0)  -->
<svg version="1.1" xmlns="http://www.w3.org/2000/svg" xmlns:xlink="http://www.w3.org/1999/xlink" x="0px" y="0px"
	 viewBox="0 0 2500 2500" style="enable-background:new 0 0 2500 2500;" xml:space="preserve">
<g id="Background">
	<rect style="fill:#f8f8f8;" width="2500" height="2500"/>
</g>
<g id="Illustration">
	<g id="Business_opportunity_1_">
		<circle style="fill:#F2E6DC;" cx="1250" cy="1250" r="915"/>
		<g>
			<path style="fill:#363E44;" d="M1530.633,1456.325c-0.091,0-0.18,0-0.271-0.001l-69.509-0.541
				c-9.116-0.071-17.658-3.688-24.052-10.186c-6.395-6.498-9.875-15.098-9.801-24.215l0.249-30.725
				c0.151-18.731,15.438-33.87,34.134-33.87c0.091,0,0.18,0,0.271,0.001l69.509,0.541c9.116,0.071,17.658,3.688,24.052,10.186
				c6.395,6.497,9.875,15.097,9.801,24.215l-0.248,30.725C1564.615,1441.187,1549.327,1456.324,1530.633,1456.325z
				 M1461.385,1358.787c-17.602,0-31.993,14.251-32.135,31.887l-0.249,30.725c-0.069,8.583,3.207,16.679,9.227,22.796
				c6.019,6.117,14.06,9.522,22.642,9.589l69.509,0.541l0,0c17.754,0.157,32.247-14.166,32.39-31.886l0.248-30.725
				c0.069-8.583-3.207-16.68-9.226-22.796c-6.02-6.116-14.061-9.522-22.643-9.588l-69.509-0.541
				C1461.555,1358.787,1461.469,1358.787,1461.385,1358.787z"/>
			
				<rect x="1351.861" y="1365.344" transform="matrix(0.0078 -1 1 0.0078 -83.206 3053.8545)" style="fill:#363E44;" width="290.79" height="407.022"/>
			<path style="fill:#F7F1EB;" d="M1496.368,1588.354c-0.218,0-0.435-0.071-0.615-0.212l-177.786-138.853
				c-0.436-0.34-0.513-0.968-0.173-1.404c0.339-0.435,0.967-0.513,1.403-0.172l177.178,138.377l177.514-135.735
				c0.441-0.335,1.068-0.251,1.401,0.187c0.336,0.439,0.252,1.066-0.187,1.402l-178.128,136.205
				C1496.796,1588.286,1496.582,1588.354,1496.368,1588.354z"/>
			
				<rect x="1481.999" y="1555.43" transform="matrix(0.0078 -1 1 0.0078 -98.5856 3068.8643)" style="fill:#F7F1EB;" width="30.269" height="57.36"/>
		</g>
		<g>
			<g>
				<g>
					<rect x="600.21" y="1915.127" style="fill:#EFBC73;" width="317.333" height="210.528"/>
				</g>
				<g>
					<rect x="1040.224" y="1803.678" style="fill:#EFBC73;" width="317.333" height="321.977"/>
				</g>
				<path style="fill:#776E42;" d="M866.609,2114.488c-0.553,0-1-0.448-1-1v-185.673c0-0.552,0.447-1,1-1c0.553,0,1,0.448,1,1
					v185.673C867.609,2114.04,867.162,2114.488,866.609,2114.488z"/>
				<g>
					<rect x="1480.238" y="1670.104" style="fill:#EFBC73;" width="317.333" height="455.551"/>
				</g>
				<path style="fill:#776E42;" d="M1746.638,2114.488c-0.553,0-1-0.448-1-1v-430.695c0-0.552,0.447-1,1-1s1,0.448,1,1v430.695
					C1747.638,2114.04,1747.19,2114.488,1746.638,2114.488z"/>
				<path style="fill:#776E42;" d="M1304.972,2114.488c-0.553,0-1-0.448-1-1v-297.752c0-0.552,0.447-1,1-1s1,0.448,1,1v297.752
					C1305.972,2114.04,1305.524,2114.488,1304.972,2114.488z"/>
			</g>
			<g>
				<path style="fill:#363E44;" d="M1154.944,2089.154c-42.201,0-84.269-3.008-125.836-9.017
					c-69.966-10.115-138.711-28.753-204.325-55.398c-128.82-52.311-245.11-135.643-336.298-240.987
					c-0.361-0.417-0.316-1.049,0.102-1.41c0.416-0.362,1.049-0.316,1.41,0.102c188.473,217.729,471.716,329.832,757.664,299.86
					c442.831-46.405,781.801-416.735,788.474-861.418c0.008-0.547,0.454-0.985,0.999-0.985c0.006,0,0.011,0,0.016,0
					c0.553,0.008,0.993,0.463,0.985,1.015c-3.214,214.17-84.646,419.87-229.297,579.205
					c-71.351,78.595-155.148,142.978-249.065,191.359c-97.226,50.086-202.165,81.313-311.902,92.813
					C1216.938,2087.534,1185.902,2089.154,1154.944,2089.154z"/>
				<path style="fill:#363E44;" d="M2061.979,1259.152c-0.388,0-0.758-0.228-0.92-0.608l-23.9-56.025l-29.586,52.697
					c-0.272,0.482-0.884,0.651-1.361,0.382c-0.481-0.271-0.653-0.88-0.383-1.362l30.581-54.468c0.187-0.332,0.558-0.527,0.926-0.509
					c0.381,0.021,0.717,0.256,0.866,0.606l24.697,57.894c0.217,0.508-0.02,1.096-0.527,1.313
					C2062.244,1259.126,2062.11,1259.152,2061.979,1259.152z"/>
			</g>
		</g>
		<g>
			<g>
				<g>
					<path style="fill:#f8f8f8;" d="M1053.039,1696.471c-8.764,1.081-15.029,9.013-14.053,17.793l7.977,71.776
						c1.047,9.421,9.316,16.833,19.716,17.685c35.985,2.945,119.028,7.325,183.283-7.656c0,0-29.244-93.78-124.072-108.586
						L1053.039,1696.471z"/>
					<path style="fill:#E2A18D;" d="M962.149,1260.745l77.478,442.067c2.742,15.646,15.456,27.643,31.24,29.375
						c12.541,1.376,28.329,1.099,44.981-4.174c15.211-4.817,25.326-19.235,24.828-35.189l-13.748-440.672L962.149,1260.745z"/>
				</g>
				<g>
					<path style="fill:#f8f8f8;" d="M634.147,1404.97c4.807-7.41,2.762-17.31-4.587-22.207l-60.081-40.038
						c-7.886-5.255-18.878-3.685-26.216,3.735c-25.392,25.677-82.14,86.487-111.985,145.349c0,0,90.602,37.891,162.909-25.243
						L634.147,1404.97z"/>
					<path style="fill:#E2A18D;" d="M843.357,1274.294L726.09,1422.292c-6.956,8.779-19.23,11.253-29.041,5.854l-69.609-38.304
						c-9.776-5.379-21.793-4.519-30.695,2.21c-15.116,11.426-40.079,40.211-22.548,69.182c1.332,2.201,3.051,4.149,4.979,5.853
						l68.671,60.703c57.129,50.501,143.784,47.411,197.174-7.03l199.793-203.726L843.357,1274.294z"/>
				</g>
				<path style="fill:#363E44;" d="M723.347,1418.394c0.96-5.167,78.257-260.196,78.257-260.196l321.011-39.615
					c0,0,66.857,176.95,89.481,280.412L723.347,1418.394z"/>
			</g>
			<g>
				<g>
					<path style="fill:#E2A18D;" d="M1151.984,834.006c0,0,112.4-89.911,151.499-117.249
						c41.062-28.711,105.867-65.119,110.841-55.985c2.833,5.203-4.978,11.997-27.065,28.766c1.964,0.269,7.712,2.557,9.549,7.814
						c2.718,7.779-2.962,11.702-3.297,12.284c0.673,0.037,8.321,0.873,11.022,5.772c3.042,5.518,1.408,10.612-1.625,14.518
						c1.668,0.145,8.639,1.928,10.996,6.763c3.065,6.286-1.209,12.741-5.988,15.979c-8.768,5.939-33.13,21.571-44.958,31.484
						c-23.276,19.507-96.64,99.88-137.73,119.178C1221.245,864.229,1151.984,834.006,1151.984,834.006z"/>
					<path style="fill:#363E44;" d="M1335.828,761.616c-0.202,0-0.406-0.061-0.583-0.189c-0.448-0.322-0.55-0.947-0.228-1.395
						c6.302-8.756,7.648-17.428,8.731-24.396c1.114-7.178,1.995-12.847,8.111-14.158c3.99-0.856,8.394-3.903,12.736-8.812
						c1.197-1.352,1.023-2.958,0.463-4.008c-0.569-1.065-1.819-2.122-3.643-1.871l-32.273,4.365
						c-0.556,0.069-1.051-0.311-1.125-0.857c-0.074-0.547,0.31-1.051,0.857-1.125l32.273-4.365c2.327-0.315,4.56,0.827,5.674,2.911
						c1.103,2.065,0.817,4.529-0.729,6.276c-4.693,5.306-9.342,8.482-13.814,9.441c-4.559,0.977-5.383,4.962-6.556,12.51
						c-1.115,7.178-2.503,16.112-9.084,25.256C1336.445,761.472,1336.139,761.616,1335.828,761.616z"/>
					<path style="fill:#363E44;" d="M1389.356,758.658c-0.32,0-0.634-0.153-0.827-0.437c-4.661-6.844-3.73-16.013,1.917-21.804
						l-3.651,1.792c-4.947,2.431-10.922,0.975-14.2-3.457c-1.847-2.496-2.59-5.558-2.093-8.623c0.498-3.064,2.171-5.733,4.712-7.516
						l4.268-2.995c-3.558,0.366-7.171-1.333-9.056-4.589c-2.38-4.109-1.297-9.34,2.519-12.167l9.587-7.098
						c0.442-0.329,1.07-0.235,1.398,0.209c0.329,0.444,0.235,1.07-0.209,1.399l-9.586,7.098c-2.997,2.22-3.848,6.329-1.979,9.558
						c1.984,3.426,6.417,4.656,9.879,2.738l7.195-3.982c0.464-0.257,1.052-0.106,1.332,0.345c0.282,0.451,0.162,1.044-0.273,1.349
						l-13.927,9.774c-2.096,1.471-3.476,3.672-3.886,6.2c-0.41,2.528,0.202,5.054,1.726,7.113c2.706,3.656,7.633,4.855,11.712,2.851
						l11.473-5.631c0.456-0.227,1.013-0.068,1.286,0.364c0.272,0.433,0.175,1.001-0.226,1.318l-5.104,4.029
						c-6.27,4.949-7.658,13.999-3.162,20.601c0.312,0.457,0.193,1.079-0.264,1.39
						C1389.746,758.602,1389.55,758.658,1389.356,758.658z"/>
				</g>
				<g>
					<path style="fill:#E2A18D;" d="M738.045,847.464c0-0.003,0.003-0.005,0.001-0.007
						c-54.602-80.976-91.789-139.474-103.978-157.082c-1.277-1.844-3.515-5.109-7.465-8.405
						c-14.636-12.213-29.316-5.284-50.563-11.102c-24.108-6.601-33.947-23.971-39.203-20.347
						c-3.656,2.521-1.788,10.119,7.352,22.967c0.001,0.001-0.001,0.003-0.001,0.003c-8.067-8.964-19.537-20.642-24.475-16.168
						c-5.426,5.47,6.439,20.774,14.069,29.68c-9.235-10.781-17.371-13.749-19.503-10.569c-3.356,5.007,1.86,15.035,14.618,28.81
						c0,0,0,0.002,0,0.001c-11.466-7.049-15.297-7.05-16.497-3.779c-2.19,5.973,8.512,17.1,19.481,25.485
						c12.348,9.441,25.198,12.477,33.346,14.198c0.002,0,0.004,0.002,0.005,0.004c32.364,60.68,55.843,98.442,78.237,149.284
						C657.742,922.84,734.999,900.947,738.045,847.464z"/>
					<path style="fill:#E2A18D;" d="M594.284,680.752c-12.491-21.353-12.473-31.703-9.027-33.575
						c5.795-3.149,23.919,10.714,46.104,39.621C620.88,686.04,604.764,681.51,594.284,680.752z"/>
					<g>
						<path style="fill:#363E44;" d="M599.977,722.569c-0.344,0-0.679-0.178-0.865-0.496c-2.145-3.677-6.121-8.764-12.885-12.115
							c-9.57-4.742-18.787-2.92-22.306-1.918c-0.532,0.151-1.085-0.156-1.236-0.688c-0.151-0.531,0.156-1.084,0.688-1.236
							c3.742-1.066,13.545-3.002,23.743,2.05c7.207,3.571,11.441,8.985,13.725,12.899c0.277,0.477,0.116,1.089-0.36,1.368
							C600.321,722.525,600.148,722.569,599.977,722.569z"/>
						<path style="fill:#363E44;" d="M615.175,677.646c-0.092,0-0.185-0.013-0.278-0.04c-5.075-1.469-10.489-1.698-16.222-1.941
							c-2.743-0.116-5.579-0.236-8.56-0.493c-0.55-0.047-0.958-0.531-0.91-1.082c0.047-0.55,0.52-0.967,1.082-0.911
							c2.936,0.252,5.751,0.371,8.473,0.486c5.855,0.248,11.387,0.482,16.693,2.019c0.53,0.153,0.836,0.708,0.683,1.238
							C616.009,677.361,615.609,677.646,615.175,677.646z"/>
						<path style="fill:#363E44;" d="M563.785,685.56c-0.1,0-0.202-0.016-0.303-0.047c-2.929-0.93-5.782-2.135-8.479-3.582
							c-3.917-2.102-7.547-4.728-10.788-7.805c-0.4-0.38-0.417-1.013-0.037-1.414c0.382-0.4,1.014-0.417,1.414-0.037
							c3.112,2.955,6.597,5.476,10.356,7.493c2.589,1.389,5.328,2.546,8.14,3.439c0.526,0.167,0.817,0.73,0.65,1.256
							C564.604,685.289,564.21,685.56,563.785,685.56z"/>
						<path style="fill:#363E44;" d="M552.232,697.635c-0.1,0-0.202-0.016-0.303-0.047c-2.928-0.929-5.78-2.135-8.479-3.583
							c-3.917-2.101-7.546-4.727-10.788-7.805c-0.4-0.38-0.417-1.013-0.037-1.414c0.381-0.4,1.014-0.417,1.414-0.037
							c3.112,2.955,6.597,5.476,10.356,7.492c2.591,1.39,5.329,2.547,8.14,3.439c0.526,0.167,0.817,0.729,0.65,1.256
							C553.051,697.363,552.657,697.635,552.232,697.635z"/>
						<path style="fill:#363E44;" d="M548.124,717.549c-0.1,0-0.202-0.016-0.303-0.047c-2.93-0.931-5.783-2.136-8.48-3.583
							c-3.917-2.102-7.547-4.727-10.788-7.805c-0.4-0.38-0.417-1.013-0.037-1.414c0.382-0.4,1.014-0.417,1.414-0.037
							c3.112,2.955,6.597,5.476,10.356,7.493c2.589,1.389,5.328,2.546,8.141,3.439c0.526,0.167,0.817,0.729,0.65,1.256
							C548.941,717.277,548.548,717.549,548.124,717.549z"/>
					</g>
				</g>
				<g>
					<path style="fill:#363E44;" d="M1098.012,1277.886c-0.461,0-0.875-0.32-0.977-0.789c-0.116-0.54,0.227-1.072,0.767-1.188
						c80.899-17.441,103.377-36.261,107.987-48.978c2.552-7.039-0.818-11.475-0.963-11.66c-0.339-0.434-0.265-1.062,0.168-1.402
						c0.432-0.341,1.058-0.27,1.4,0.162c0.173,0.217,4.196,5.417,1.303,13.503c-4.727,13.213-27.556,32.67-109.474,50.331
						C1098.152,1277.879,1098.081,1277.886,1098.012,1277.886z"/>
					<g>
						<path style="fill:#f8f8f8;" d="M1040.494,1164.846l64.921,215.996c0,0,56.286-68.722,68.717-116.856l-36.422-113.724
							L1040.494,1164.846z"/>
						<path style="fill:#f8f8f8;" d="M1021.365,1163.072l1.814,223.083c0,0-197.475-16.462-249.279-113.617l6.49-70.023
							L1021.365,1163.072z"/>
					</g>
					<path style="fill:#8B865C;" d="M735.916,834.263l-93.728,64.664c8.222,17.245,24.582,45.665,54.944,71.13
						c40.672,34.114,83.586,43.732,103.424,46.881l-44.169,224.675c0,0,307.593-103.857,453.284-34.106l-64.908-229.368
						c53.328-33.949,74.336-48.498,138.976-111.545c-25.317-24.788-52.43-51.013-77.747-75.8
						c-92.848,65.602-175.631,92.219-226.599,104.181c-62.456,14.658-96.037,11.746-119.045,7.185
						C798.346,889.87,756.28,854.342,735.916,834.263z"/>
					<g>
						<path style="fill:#363E44;" d="M930.568,1106.416c-4.673,0-9.426-0.559-14.169-1.721
							c-16.008-3.921-29.518-14.247-37.067-28.329c-0.261-0.487-0.077-1.093,0.409-1.354c0.487-0.261,1.093-0.078,1.354,0.409
							c7.28,13.583,20.322,23.545,35.78,27.332c25.608,6.272,51.588-5.644,61.772-28.334c0.227-0.503,0.82-0.729,1.321-0.502
							c0.504,0.226,0.729,0.818,0.503,1.322C971.783,1094.599,952.051,1106.416,930.568,1106.416z"/>
						<path style="fill:#363E44;" d="M1080.973,1089.444c-12.967,0-25.534-4.275-35.531-12.274
							c-0.431-0.345-0.501-0.974-0.156-1.406c0.347-0.43,0.975-0.501,1.406-0.156c12.032,9.627,27.936,13.661,43.639,11.065
							c26.014-4.299,45.222-25.471,45.671-50.34c0.01-0.546,0.456-0.982,1-0.982c0.006,0,0.012,0,0.019,0
							c0.552,0.01,0.991,0.466,0.981,1.018c-0.467,25.834-20.378,47.82-47.345,52.277
							C1087.427,1089.182,1084.187,1089.444,1080.973,1089.444z"/>
					</g>
				</g>
			</g>
			<g>
				<g>
					<path style="fill:#84524D;" d="M1065.717,480.765l-97.715,5.156l-43.232,32.057l21.79-30.926l-89.778,4.737l-35.631,28.098
						l20.375-27.293l-38.861,2.051c-96.599,60.636-21.126,87.145-22.196,100.742c-1.07,13.598-54.857,50.807-48.036,98.509
						c14.055,98.281,163.096,90.417,163.096,90.417l2.37-18.937c-18.818-12.62-60.088-49.912,10.555-90.57
						c70.643-40.659,28.448-63.828,17.895-104.656C915.797,529.322,1065.717,480.765,1065.717,480.765z"/>
					<g>
						<g>
							<path style="fill:#E2A18D;" d="M1001.364,838.983c-8.795,17.138-62.105,10.71-62.105,10.71l-46.981-35.422
								c-12.485-24.051-3.117-53.672,20.925-66.162c24.042-12.49,53.652-3.118,66.137,20.932
								C979.339,769.042,1010.321,821.529,1001.364,838.983z"/>
							<polygon style="fill:#E2A18D;" points="928.181,928.715 985.043,909.637 959.925,778.711 901.552,789.918 							"/>
							<path style="fill:#E2A18D;" d="M980.281,783.091c0,0,18.853,6.454,19.957,10.17c1.318,4.436-11.005,13.961-11.005,13.961
								S980.621,782.953,980.281,783.091z"/>
						</g>
						<g>
							<g>
								<path style="fill:#f8f8f8;" d="M940.028,801.636c0,0,5.252-7.707,14.038-12.271c1.869-0.971,6.111,15.824,3.896,15.898
									C948.227,805.591,940.028,801.636,940.028,801.636z"/>
								<g>
									<defs>
										<path id="SVGID_1_" d="M940.028,801.636c0,0,7.725-11.336,20.108-14.652c12.383-3.316,24.736,2.642,24.736,2.642
											s-7.725,11.336-20.108,14.652C952.381,807.595,940.028,801.636,940.028,801.636z"/>
									</defs>
									<clipPath id="SVGID_00000179634207116320637590000005259971480316238258_">
										<use xlink:href="#SVGID_1_"  style="overflow:visible;"/>
									</clipPath>
									<path style="clip-path:url(#SVGID_00000179634207116320637590000005259971480316238258_);fill:#363E44;" d="
										M954.238,788.788c2.793-8.831,12.214-13.725,21.041-10.931c8.828,2.794,13.72,12.218,10.927,21.049
										c-2.793,8.831-12.214,13.725-21.041,10.931C956.337,807.043,951.445,797.619,954.238,788.788z"/>
								</g>
							</g>
							<path style="fill:#363E44;" d="M979.208,822.134c-0.251,0-0.502-0.012-0.754-0.037c-2.961-0.287-5.557-2.281-6.613-5.082
								c-0.195-0.517,0.065-1.094,0.582-1.289c0.517-0.195,1.094,0.066,1.289,0.583c0.79,2.093,2.727,3.583,4.936,3.797
								c2.299,0.22,4.519-0.937,5.675-2.951c0.274-0.479,0.887-0.645,1.364-0.371c0.479,0.274,0.645,0.886,0.37,1.365
								C984.64,820.625,982.008,822.134,979.208,822.134z"/>
							<path style="fill:#363E44;" d="M961.317,852.644c-11.539,0-21.084-1.122-21.789-1.207c-0.548-0.066-0.939-0.564-0.873-1.112
								c0.066-0.548,0.563-0.94,1.113-0.873c0.307,0.037,30.993,3.642,49.194-2.046c0.521-0.164,1.087,0.129,1.252,0.656
								c0.165,0.527-0.129,1.088-0.656,1.253C981.245,851.913,970.632,852.644,961.317,852.644z"/>
						</g>
						<g>
							<path style="fill:#84524D;" d="M895.473,844c-15.019-3.959-25.458-35.591-20.985-57.992
								c5.766-28.879,34.34-50.751,60.287-53.489c6.378-0.673,21.31-0.351,27.788,7.686c12.135,15.056-6.027,51.373-13.603,62.616
								C937.398,819.981,911.977,848.35,895.473,844z"/>
							<path style="fill:#84524D;" d="M893.113,845.035c-1.259,0-2.521-0.03-3.789-0.09c-0.552-0.026-0.978-0.495-0.951-1.047
								c0.026-0.552,0.51-0.958,1.047-0.951c1.234,0.059,2.469,0.088,3.692,0.088c27.471,0.001,52.085-14.718,63.396-38.217
								c13.364-27.761,1.449-54.802-1.075-59.941c-0.243-0.496-0.039-1.095,0.457-1.338c0.499-0.243,1.096-0.039,1.338,0.456
								c2.596,5.285,14.849,33.096,1.083,61.69C946.665,829.878,921.348,845.034,893.113,845.035z"/>
						</g>
					</g>
				</g>
				<g>
					<polygon style="fill:#E6D0BE;" points="945.189,927.41 978.9,964.146 985.237,916.462 967.347,891.809 966.894,917.43 
						956.274,896.447 					"/>
					<polygon style="fill:#f8f8f8;" points="897.967,905.054 912.306,880.483 956.274,896.447 949.537,952.813 					"/>
					<polygon style="fill:#f8f8f8;" points="967.347,891.809 987.869,872.159 1009.681,886.48 991.561,942.161 					"/>
				</g>
			</g>
		</g>
		<g>
			<g>
				<path style="fill:#D87355;" d="M1875.671,897.319c-7.275,0-14.583-0.283-21.914-0.852
					c-73.83-5.737-141.007-39.893-189.157-96.174c-48.149-56.282-71.509-127.952-65.773-201.81
					c5.734-73.856,39.877-141.058,96.138-189.226c56.26-48.168,127.905-71.54,201.734-65.799
					c73.83,5.737,141.007,39.893,189.157,96.174c48.149,56.282,71.509,127.952,65.773,201.809
					c-5.735,73.857-39.878,141.059-96.139,189.227C2004.816,874.053,1941.66,897.319,1875.671,897.319z M1874.788,344.606
					c-65.519,0-128.212,23.095-178.523,66.17c-55.854,47.821-89.751,114.538-95.444,187.862
					c-11.754,151.366,101.782,284.076,253.091,295.834c7.274,0.565,14.538,0.846,21.757,0.846
					c65.518,0.002,128.21-23.095,178.521-66.17c55.855-47.82,89.752-114.538,95.445-187.862
					c11.754-151.365-101.782-284.076-253.091-295.834C1889.27,344.887,1882.007,344.606,1874.788,344.606z"/>
				<path style="fill:#D3BBA3;" d="M1891.163,414.741c-113.298-8.804-212.28,75.939-221.081,189.279
					c-8.801,113.341,75.911,212.358,189.209,221.163c113.298,8.804,212.279-75.939,221.08-189.28
					C2089.173,522.563,2004.462,423.546,1891.163,414.741z M1865.666,743.095c-67.98-5.283-118.806-64.693-113.525-132.698
					c5.281-68.004,64.668-118.85,132.648-113.568c67.979,5.283,118.806,64.693,113.525,132.697
					C1993.034,697.532,1933.645,748.378,1865.666,743.095z"/>
				
					<ellipse transform="matrix(0.0039 -1 1 0.0039 1247.9917 2492.7695)" style="fill:#D87355;" cx="1875.227" cy="619.962" rx="55.328" ry="55.307"/>
			</g>
		</g>
		<g>
			<g>
				<g>
					<path style="fill:#D87355;" d="M1622.797,1106.886c-13.521,83.461-62.688,111.521-131.285,119.204l0-0.001l0,0
						c4.736-101.799,116.606-135.232,116.606-135.232L1622.797,1106.886z"/>
					<path style="fill:#D87355;" d="M1449.613,917.777c-84.326,6.146-116.591,52.661-130.263,120.319l0.001,0l-0.001,0
						c101.822,4.214,144.942-104.291,144.942-104.291L1449.613,917.777z"/>
					<path style="fill:#D87355;" d="M1444.264,1010.161c0,0-114.622,42.883-95.748,187.192c0,0,22.698-25.324,63.93-24.439
						c60.528,1.299,96.928-26.695,115.938-70.898L1444.264,1010.161z"/>
				</g>
				<g>
					<path style="fill:#363E44;" d="M1506.948,1227.855c-0.253,0-0.497-0.096-0.684-0.271c-0.214-0.2-0.329-0.483-0.315-0.776
						c2.465-52.979,34.252-87.184,60.483-106.549c28.372-20.945,56.554-29.511,56.835-29.595c0.363-0.112,0.764,0,1.023,0.283
						l14.679,16.029c0.207,0.226,0.299,0.533,0.25,0.835c-6.485,40.034-21.317,69.026-45.344,88.633
						c-21.008,17.144-48.595,27.123-86.816,31.404C1507.022,1227.853,1506.985,1227.855,1506.948,1227.855z M1623.246,1092.767
						c-4.194,1.348-29.852,10.061-55.676,29.138c-25.666,18.96-56.727,52.32-59.564,103.822
						c78.45-9.091,117.132-44.371,129.161-117.758L1623.246,1092.767z"/>
					<path style="fill:#363E44;" d="M1340.448,1039.98c-1.882,0-3.78-0.039-5.704-0.119c-0.293-0.012-0.565-0.151-0.746-0.382
						s-0.251-0.528-0.193-0.815c7.618-37.699,19.979-64.304,38.9-83.728c21.64-22.213,51.821-34.444,92.271-37.392
						c0.29-0.015,0.603,0.097,0.81,0.322l14.68,16.029c0.259,0.283,0.334,0.688,0.192,1.044
						c-0.108,0.273-11.115,27.594-34.468,54.019C1425.381,1012.503,1390.388,1039.98,1340.448,1039.98z M1336.001,1037.906
						c51.557,1.689,87.546-26.346,108.689-50.272c21.255-24.05,32.161-48.802,33.87-52.857l-13.923-15.202
						C1390.479,925.119,1351.94,960.557,1336.001,1037.906z"/>
					<path style="fill:#363E44;" d="M1363.951,1199.119c-0.099,0-0.198-0.015-0.296-0.045c-0.373-0.116-0.645-0.438-0.695-0.825
						c-4.325-33.068-1.956-63.542,7.041-90.575c7.203-21.645,18.646-41.14,34.009-57.942c26.155-28.606,55.05-39.634,55.339-39.742
						c0.381-0.144,0.812-0.04,1.088,0.261l84.12,91.855c0.266,0.29,0.337,0.709,0.182,1.07
						c-20.425,47.491-58.372,71.546-112.825,71.547c-1.342,0-2.692-0.015-4.054-0.043c-40.24-0.874-62.939,23.857-63.164,24.107
						C1364.503,1199.001,1364.23,1199.119,1363.951,1199.119z M1459.428,1012.11c-4.319,1.763-30.29,13.074-54.004,39.039
						c-23.6,25.839-49.691,71.875-40.737,144.816c5.724-5.46,27.847-24.038,63.216-23.285c55.521,1.209,94.104-22.26,114.742-69.701
						L1459.428,1012.11z"/>
				</g>
				<g>
					<path style="fill:#363E44;" d="M1335.8,1317.533c-0.271,0-0.54-0.109-0.737-0.325c-0.373-0.407-0.346-1.04,0.062-1.413
						l122.63-112.304c0.408-0.373,1.04-0.345,1.413,0.062s0.346,1.04-0.062,1.413l-122.63,112.304
						C1336.283,1317.446,1336.041,1317.533,1335.8,1317.533z"/>
					<path style="fill:#363E44;" d="M1417.635,1292.709c-0.271,0-0.54-0.109-0.737-0.325c-0.373-0.407-0.346-1.04,0.062-1.413
						l48.08-44.032c0.408-0.373,1.04-0.345,1.413,0.062s0.346,1.04-0.062,1.413l-48.08,44.032
						C1418.118,1292.623,1417.876,1292.709,1417.635,1292.709z"/>
					<path style="fill:#363E44;" d="M1263.449,1144.033c-0.271,0-0.54-0.109-0.737-0.325c-0.373-0.407-0.346-1.04,0.062-1.413
						l82.668-75.707c0.407-0.373,1.039-0.346,1.413,0.062c0.373,0.407,0.346,1.04-0.062,1.413l-82.668,75.707
						C1263.933,1143.946,1263.69,1144.033,1263.449,1144.033z"/>
					<path style="fill:#363E44;" d="M1294.496,1086.741c-0.271,0-0.54-0.109-0.737-0.325c-0.373-0.407-0.346-1.04,0.062-1.413
						l33.354-30.546c0.408-0.373,1.04-0.345,1.413,0.062s0.346,1.04-0.062,1.413l-33.354,30.546
						C1294.979,1086.654,1294.737,1086.741,1294.496,1086.741z"/>
					<path style="fill:#363E44;" d="M1218.468,1287.039c-0.271,0-0.54-0.109-0.737-0.325c-0.373-0.407-0.346-1.04,0.062-1.413
						l109.94-100.683c0.408-0.373,1.04-0.345,1.413,0.062s0.346,1.04-0.062,1.413l-109.94,100.683
						C1218.951,1286.952,1218.709,1287.039,1218.468,1287.039z"/>
					<path style="fill:#363E44;" d="M1234.838,1240.295c-0.271,0-0.54-0.109-0.737-0.325c-0.373-0.407-0.346-1.04,0.062-1.413
						l57.12-52.311c0.408-0.373,1.04-0.345,1.413,0.062s0.346,1.04-0.062,1.413l-57.12,52.311
						C1235.321,1240.208,1235.079,1240.295,1234.838,1240.295z"/>
				</g>
				<path style="fill:#363E44;" d="M1567.753,1099.659c-0.271,0-0.54-0.109-0.737-0.325L1459.663,982.11
					c-0.373-0.407-0.346-1.04,0.062-1.413l33.853-31.003c0.196-0.179,0.448-0.268,0.72-0.262c0.265,0.012,0.515,0.128,0.693,0.324
					l107.354,117.224c0.18,0.195,0.273,0.454,0.262,0.719s-0.128,0.515-0.323,0.693l-33.854,31.002
					C1568.236,1099.572,1567.994,1099.659,1567.753,1099.659z M1461.813,981.497l106.002,115.75l32.378-29.652L1494.19,951.846
					L1461.813,981.497z"/>
			</g>
			<g>
				<path style="fill:#EFBC73;" d="M1926.207,789.158L1926.207,789.158c29.772-61.558,39.674-103.54,37.654-161.02l-0.001,0l0-0.001
					c-65.43-9.428-99.77-0.875-163.703,23.381l0,0l0,0l63.024,68.82L1926.207,789.158L1926.207,789.158z"/>
				<path style="fill:#EFBC73;" d="M1904.039,821.475l3.487-6.068l-135.154-147.582l-6.35,2.941
					c-98.74,45.719-217.992,132.177-298.237,205.665l-15.937,14.595l205.217,224.086l15.937-14.595
					C1753.245,1027.03,1849.832,915.823,1904.039,821.475z"/>
				<g>
					
						<ellipse transform="matrix(0.7071 -0.7071 0.7071 0.7071 -104.1233 1462.8938)" style="fill:#f8f8f8;" cx="1713.807" cy="857.135" rx="97.019" ry="97.018"/>
				</g>
				<path style="fill:#363E44;" d="M1919.26,805.661c-0.271,0-0.54-0.109-0.737-0.325l-135.154-147.582
					c-0.373-0.407-0.346-1.039,0.062-1.413c0.408-0.373,1.04-0.345,1.413,0.062l135.154,147.582
					c0.373,0.407,0.346,1.039-0.062,1.412C1919.743,805.574,1919.501,805.661,1919.26,805.661z"/>
			</g>
			<g>
				<path style="fill:#D87355;" d="M1714.841,927.997c-19.486,0-38.054-7.518-52.281-21.169
					c-14.364-13.782-22.275-31.95-22.275-51.155c0-39.88,32.527-72.325,72.51-72.325s72.51,32.445,72.51,72.325
					C1785.304,896.228,1754.353,927.997,1714.841,927.997z M1712.794,785.348c-38.879,0-70.51,31.547-70.51,70.325
					c0,38.12,33.227,70.324,72.557,70.324c38.391,0,68.463-30.89,68.463-70.324C1783.304,816.895,1751.673,785.348,1712.794,785.348
					z"/>
				<ellipse style="fill:#D87355;" cx="1712.794" cy="855.672" rx="59.386" ry="59.232"/>
				<g>
					<path style="fill:#f8f8f8;" d="M1725.115,872.442c0-2.715-0.979-5.048-2.936-7.001c-1.958-1.952-5.169-3.691-9.634-5.216
						c-6.178-1.86-10.843-4.347-13.993-7.459c-3.151-3.111-4.725-7.26-4.725-12.446c0-5.033,1.445-9.136,4.335-12.309
						c2.89-3.172,6.874-5.079,11.951-5.72V812.18h7.249v10.158c5.138,0.732,9.121,2.921,11.951,6.566
						c2.829,3.646,4.244,8.534,4.244,14.665h-8.992c0-4.148-0.964-7.504-2.89-10.067c-1.927-2.562-4.604-3.844-8.028-3.844
						c-3.609,0-6.308,0.938-8.097,2.814c-1.789,1.876-2.684,4.446-2.684,7.71c0,2.959,0.925,5.354,2.776,7.184
						c1.85,1.83,5.191,3.569,10.024,5.216c6.269,2.013,10.919,4.523,13.946,7.527c3.028,3.005,4.542,7.085,4.542,12.24
						c0,5.247-1.576,9.419-4.725,12.515c-3.15,3.097-7.478,4.934-12.983,5.514v8.785h-7.203v-8.74
						c-5.261-0.549-9.573-2.463-12.937-5.743c-3.365-3.279-4.986-8.091-4.863-14.437l0.092-0.229h8.716
						c0,4.698,1.185,8.046,3.556,10.044c2.37,1.998,5.283,2.997,8.74,2.997c3.945,0,7.026-0.938,9.244-2.814
						C1724.006,878.368,1725.115,875.768,1725.115,872.442z"/>
				</g>
			</g>
		</g>
		<g>
			<g>
				<path style="fill:#D87355;" d="M1237.734,619.338c-25.133,0-49.081-9.697-67.432-27.304
					c-18.525-17.774-28.728-41.202-28.728-65.967c0-51.43,41.949-93.272,93.511-93.272c51.563,0,93.512,41.841,93.512,93.272
					C1328.598,578.368,1288.686,619.338,1237.734,619.338z M1235.086,434.795c-50.459,0-91.511,40.944-91.511,91.272
					c0,49.474,43.119,91.271,94.159,91.271c49.83,0,88.863-40.091,88.863-91.271
					C1326.598,475.739,1285.546,434.795,1235.086,434.795z"/>
				<ellipse style="fill:#D87355;" cx="1235.086" cy="526.066" rx="76.827" ry="76.628"/>
				<g>
					<path style="fill:#f8f8f8;" d="M1251.026,547.762c0-3.512-1.267-6.531-3.798-9.057c-2.533-2.525-6.687-4.775-12.463-6.748
						c-7.993-2.407-14.027-5.624-18.102-9.649c-4.076-4.025-6.113-9.392-6.113-16.101c0-6.512,1.87-11.819,5.609-15.924
						c3.739-4.104,8.892-6.571,15.46-7.4v-13.082h9.377v13.142c6.647,0.947,11.801,3.779,15.461,8.495
						c3.659,4.716,5.49,11.04,5.49,18.972h-11.632c0-5.366-1.246-9.708-3.739-13.023c-2.493-3.315-5.956-4.973-10.386-4.973
						c-4.669,0-8.161,1.214-10.475,3.641c-2.315,2.427-3.472,5.752-3.472,9.975c0,3.828,1.196,6.926,3.591,9.294
						c2.393,2.368,6.716,4.617,12.968,6.748c8.111,2.604,14.125,5.851,18.042,9.738c3.917,3.887,5.876,9.166,5.876,15.835
						c0,6.788-2.038,12.185-6.113,16.19c-4.075,4.006-9.674,6.383-16.796,7.133v11.366h-9.318v-11.306
						c-6.806-0.71-12.385-3.187-16.737-7.429c-4.353-4.242-6.45-10.468-6.291-18.676l0.119-0.296h11.276
						c0,6.078,1.533,10.409,4.6,12.993c3.065,2.585,6.834,3.877,11.306,3.877c5.104,0,9.09-1.214,11.959-3.641
						C1249.592,555.428,1251.026,552.064,1251.026,547.762z"/>
				</g>
			</g>
			<g>
				<path style="fill:#D87355;" d="M1827.104,1338.46c-19.657,0-38.387-7.584-52.739-21.354
					c-14.49-13.903-22.471-32.229-22.471-51.604c0-40.229,32.813-72.958,73.146-72.958c40.332,0,73.145,32.729,73.145,72.958
					C1898.185,1306.414,1866.963,1338.46,1827.104,1338.46z M1825.04,1194.544c-39.229,0-71.146,31.832-71.146,70.958
					c0,38.463,33.526,70.958,73.21,70.958c38.736,0,69.08-31.168,69.08-70.958C1896.185,1226.376,1864.27,1194.544,1825.04,1194.544
					z"/>
				<ellipse style="fill:#D87355;" cx="1825.04" cy="1265.502" rx="59.914" ry="59.759"/>
				<g>
					<path style="fill:#f8f8f8;" d="M1837.47,1282.422c0-2.739-0.988-5.093-2.962-7.063c-1.975-1.969-5.215-3.724-9.72-5.263
						c-6.233-1.877-10.939-4.386-14.117-7.525c-3.179-3.139-4.767-7.324-4.767-12.557c0-5.078,1.458-9.217,4.374-12.418
						c2.916-3.201,6.935-5.124,12.057-5.771v-10.202h7.313v10.248c5.184,0.739,9.203,2.947,12.057,6.625
						c2.854,3.678,4.281,8.609,4.281,14.796h-9.072c0-4.185-0.972-7.571-2.916-10.156c-1.944-2.585-4.645-3.878-8.1-3.878
						c-3.641,0-6.364,0.946-8.169,2.839c-1.805,1.893-2.708,4.486-2.708,7.779c0,2.985,0.933,5.401,2.8,7.248
						c1.867,1.847,5.237,3.601,10.113,5.263c6.325,2.031,11.016,4.563,14.07,7.594c3.055,3.031,4.582,7.148,4.582,12.349
						c0,5.294-1.59,9.503-4.767,12.626c-3.178,3.124-7.544,4.978-13.098,5.563v8.864h-7.267v-8.817
						c-5.307-0.554-9.658-2.485-13.052-5.794c-3.395-3.308-5.03-8.163-4.906-14.565l0.093-0.231h8.794
						c0,4.74,1.196,8.118,3.587,10.133c2.391,2.016,5.33,3.024,8.817,3.024c3.98,0,7.089-0.946,9.326-2.839
						C1836.352,1288.4,1837.47,1285.776,1837.47,1282.422z"/>
				</g>
			</g>
			<g>
				<path style="fill:#D87355;" d="M561.776,1214.683c-26.876,0-52.485-10.37-72.109-29.198
					c-19.81-19.007-30.72-44.059-30.72-70.541c0-54.997,44.857-99.739,99.995-99.739s99.996,44.743,99.996,99.739
					C658.938,1170.872,616.26,1214.683,561.776,1214.683z M558.942,1017.204c-54.035,0-97.995,43.846-97.995,97.739
					c0,52.98,46.174,97.739,100.829,97.739c53.362,0,95.162-42.932,95.162-97.739
					C656.938,1061.05,612.977,1017.204,558.942,1017.204z"/>
				<ellipse style="fill:#D87355;" cx="558.943" cy="1114.943" rx="82.213" ry="82"/>
				<g>
					<path style="fill:#f8f8f8;" d="M576,1138.16c0-3.758-1.355-6.989-4.065-9.692c-2.71-2.702-7.156-5.109-13.337-7.221
						c-8.553-2.576-15.01-6.018-19.371-10.325c-4.362-4.307-6.542-10.05-6.542-17.23c0-6.968,2.001-12.647,6.002-17.04
						c4.001-4.392,9.516-7.031,16.544-7.918v-13.999h10.035v14.063c7.113,1.014,12.628,4.044,16.544,9.09
						c3.916,5.047,5.875,11.814,5.875,20.302h-12.448c0-5.743-1.334-10.389-4.001-13.936c-2.668-3.547-6.373-5.321-11.114-5.321
						c-4.997,0-8.733,1.299-11.209,3.896c-2.477,2.597-3.715,6.156-3.715,10.674c0,4.097,1.28,7.411,3.842,9.945
						c2.561,2.534,7.186,4.941,13.877,7.221c8.679,2.787,15.116,6.261,19.307,10.42c4.192,4.16,6.288,9.809,6.288,16.945
						c0,7.264-2.181,13.039-6.542,17.325c-4.361,4.287-10.352,6.831-17.973,7.633v12.162h-9.971v-12.099
						c-7.283-0.76-13.253-3.41-17.91-7.95c-4.658-4.539-6.902-11.201-6.732-19.986l0.127-0.317h12.067
						c0,6.504,1.641,11.139,4.922,13.904c3.28,2.766,7.313,4.149,12.099,4.149c5.461,0,9.727-1.299,12.797-3.896
						C574.465,1146.363,576,1142.763,576,1138.16z"/>
				</g>
			</g>
		</g>
	</g>
</g>
</svg>
